<svg width="24" height="24" viewBox="0 0 24 24" fill="none" xmlns="http://www.w3.org/2000/svg">
<path d="M20.1401 8.75L19.3701 20.1799C19.3237 20.8757 19.015 21.5279 18.5064 22.0049C17.9978 22.4819 17.3272 22.7482 16.6299 22.75H7.37012C6.67284 22.7482 6.0022 22.4819 5.49361 22.0049C4.98501 21.5279 4.67633 20.8757 4.62988 20.1799L3.85986 8.75H20.1401Z" fill="#EC4A4D"/>
<path d="M15.1123 5.75H8.88771C8.61043 5.74992 8.33714 5.684 8.09033 5.55765C7.84351 5.43131 7.63023 5.24815 7.46804 5.02326C7.30584 4.79838 7.19937 4.53819 7.15739 4.26411C7.11541 3.99003 7.13912 3.70991 7.22657 3.44678L7.56157 2.44578C7.67718 2.09727 7.89976 1.79411 8.19764 1.57942C8.49552 1.36473 8.85352 1.24946 9.22071 1.25H14.7793C15.1467 1.24958 15.5049 1.365 15.803 1.57986C16.101 1.79471 16.3237 2.09807 16.4395 2.44678L16.7725 3.44578C16.8603 3.70889 16.8843 3.98909 16.8425 4.2633C16.8007 4.5375 16.6944 4.79786 16.5323 5.0229C16.3701 5.24794 16.1568 5.43122 15.9099 5.55764C15.6631 5.68406 15.3897 5.74999 15.1123 5.75ZM9.22071 2.75C9.16837 2.74982 9.11732 2.76621 9.07487 2.79683C9.03242 2.82744 9.00074 2.8707 8.98439 2.92041L8.64938 3.92141C8.63713 3.95905 8.63395 3.99906 8.64011 4.03817C8.64628 4.07727 8.66161 4.11436 8.68485 4.14641C8.70809 4.17846 8.73859 4.20455 8.77384 4.22255C8.8091 4.24056 8.84812 4.24996 8.88771 4.25H15.1123C15.152 4.25002 15.1911 4.2406 15.2264 4.22252C15.2617 4.20444 15.2922 4.17822 15.3154 4.14602C15.3386 4.11382 15.3538 4.07657 15.3597 4.03734C15.3657 3.99811 15.3622 3.95803 15.3496 3.92041L15.0166 2.92141C15.0001 2.8715 14.9683 2.82805 14.9257 2.79727C14.8831 2.7665 14.8319 2.74995 14.7793 2.75H9.22071Z" fill="#EC4A4D"/>
<path d="M10 16.75C9.8011 16.7499 9.61037 16.6709 9.46973 16.5303C9.32909 16.3896 9.25005 16.1989 9.25 16V12C9.25 11.8011 9.32902 11.6103 9.46967 11.4697C9.61032 11.329 9.80109 11.25 10 11.25C10.1989 11.25 10.3897 11.329 10.5303 11.4697C10.671 11.6103 10.75 11.8011 10.75 12V16C10.7499 16.1989 10.6709 16.3896 10.5303 16.5303C10.3896 16.6709 10.1989 16.7499 10 16.75Z" fill="#04091D"/>
<path d="M14 16.75C13.8011 16.7499 13.6104 16.6709 13.4697 16.5303C13.3291 16.3896 13.2501 16.1989 13.25 16V12C13.25 11.8011 13.329 11.6103 13.4697 11.4697C13.6103 11.329 13.8011 11.25 14 11.25C14.1989 11.25 14.3897 11.329 14.5303 11.4697C14.671 11.6103 14.75 11.8011 14.75 12V16C14.7499 16.1989 14.6709 16.3896 14.5303 16.5303C14.3896 16.6709 14.1989 16.7499 14 16.75Z" fill="#04091D"/>
<path d="M20 4.25H4C3.53587 4.25 3.09075 4.43437 2.76256 4.76256C2.43437 5.09075 2.25 5.53587 2.25 6C2.25 6.46413 2.43437 6.90925 2.76256 7.23744C3.09075 7.56563 3.53587 7.75 4 7.75H20C20.4641 7.75 20.9092 7.56563 21.2374 7.23744C21.5656 6.90925 21.75 6.46413 21.75 6C21.75 5.53587 21.5656 5.09075 21.2374 4.76256C20.9092 4.43437 20.4641 4.25 20 4.25Z" fill="#EC4A4D"/>
</svg>
