<svg width="33" height="32" viewBox="0 0 33 32" fill="none" xmlns="http://www.w3.org/2000/svg">
<path d="M29.3377 1.8292H28.0577C27.5265 1.8292 27.0977 2.258 27.0977 2.7892V4.4724C24.2433 1.8548 20.4673 0.325195 16.4993 0.325195C7.85294 0.325195 0.819336 7.3588 0.819336 16.0052V16.6452C0.819336 17.1764 1.24814 17.6052 1.77934 17.6052H3.05934C3.59054 17.6052 4.01934 17.1764 4.01934 16.6452V16.0052C4.01934 9.1252 9.61934 3.5252 16.4993 3.5252C19.9233 3.5252 23.1617 4.9524 25.4913 7.3652H23.1681C22.6369 7.3652 22.2081 7.794 22.2081 8.3252V9.6052C22.2081 10.1364 22.6369 10.5652 23.1681 10.5652H29.3441C29.8753 10.5652 30.3041 10.1364 30.3041 9.6052V2.7892C30.2977 2.258 29.8689 1.8292 29.3377 1.8292Z" fill="white"/>
<path d="M3.66117 30.1823H4.94117C5.47237 30.1823 5.90117 29.7535 5.90117 29.2223V27.5391C8.75557 30.1567 12.5316 31.6863 16.4996 31.6863C25.146 31.6863 32.1796 24.6527 32.1796 16.0063V15.3663C32.1796 14.8351 31.7508 14.4062 31.2196 14.4062H29.9396C29.4084 14.4062 28.9796 14.8351 28.9796 15.3663V16.0063C28.9796 22.8863 23.3796 28.4863 16.4996 28.4863C13.0756 28.4863 9.83717 27.0591 7.50757 24.6463H9.83077C10.362 24.6463 10.7908 24.2175 10.7908 23.6863V22.4063C10.7908 21.8751 10.362 21.4463 9.83077 21.4463H3.66117C3.12997 21.4463 2.70117 21.8751 2.70117 22.4063V29.2223C2.70117 29.7535 3.12997 30.1823 3.66117 30.1823Z" fill="white"/>
</svg>
