<svg width="40" height="40" viewBox="0 0 40 40" fill="none" xmlns="http://www.w3.org/2000/svg">
<path d="M26.7363 24.9285C26.8146 24.3693 26.8654 23.7522 26.8939 23.0714C27.0877 22.9654 27.2343 22.852 27.3508 22.7354C27.6235 22.4629 27.8797 22.025 28.0619 21.2051C28.2483 20.3662 28.3333 19.2379 28.3333 17.6923C28.3333 14.6035 27.9069 13.3408 27.2831 12.717C26.6593 12.0931 25.3966 11.6666 22.3077 11.6666C20.7621 11.6666 19.6338 11.7516 18.795 11.938C17.975 12.1203 17.5372 12.3765 17.2646 12.6491C17.1481 12.7656 17.0346 12.9123 16.9286 13.1061C17.4075 13.086 17.9179 13.0769 18.4615 13.0769C25.4296 13.0769 26.9231 14.5704 26.9231 21.5384C26.9231 28.5065 25.4296 30 18.4615 30C11.4935 30 10 28.5065 10 21.5385C10 15.8868 10.9825 13.8366 15.0716 13.2637C15.8643 10.6698 17.8583 10 22.3077 10C28.4616 10 30 11.5385 30 17.6923C30 22.1418 29.3302 24.1357 26.7363 24.9285Z" fill="#4674FF"/>
</svg>
